<svg xmlns="http://www.w3.org/2000/svg" viewBox="0 0 128 128"><defs><mask id="m"><rect width="128" height="128" fill="white"/><path transform="rotate(-45,64,64)" d="M64 52 C60 42 42 42 42 56 C42 70 54 80 64 88 C74 80 86 70 86 56 C86 42 68 42 64 52 Z" fill="black"/></mask></defs><path id="s" fill-rule="evenodd" transform="rotate(45,64,64)" mask="url(#m)" d="M81 36 64 0 47 36l-1 2L34 34 38 47h-2L0 64l36 17h2L34 94 46 90l1 2 17 36 17-36v-2 L94 94 92 81 l36-17-36-17-2-1 L94 34 81 38v-2Z M64 13 67 18 64 23 61 18 Z M105 64 110 61 115 64 110 67 Z M64 105 67 110 64 115 61 110 Z M13 64 18 61 23 64 18 67 Z"/><style>#s{fill:#000}@media (prefers-color-scheme:dark){#s{fill:#deadff}}</style></svg>
